<svg xmlns="http://www.w3.org/2000/svg" width="433.726" height="298" viewBox="0 0 433.726 298">
  <g id="Group_1" data-name="Group 1" transform="translate(-698.274 -242)">
    <circle id="Ellipse_19" data-name="Ellipse 19" cx="2" cy="2" r="2" transform="translate(1128 415)" fill="#fff"/>
    <circle id="Ellipse_16" data-name="Ellipse 16" cx="2" cy="2" r="2" transform="translate(703 441)" fill="#fff"/>
    <circle id="Ellipse_15" data-name="Ellipse 15" cx="2" cy="2" r="2" transform="translate(1036 308)" fill="#fff"/>
    <circle id="Ellipse_12" data-name="Ellipse 12" cx="2" cy="2" r="2" transform="translate(921 482)" fill="#fff"/>
    <circle id="Ellipse_13" data-name="Ellipse 13" cx="2" cy="2" r="2" transform="translate(805 298)" fill="#fff"/>
    <path id="Subtraction_1" data-name="Subtraction 1" d="M228.21,343a175.159,175.159,0,0,1-28.459-2.316,166.008,166.008,0,0,1-26.507-6.641,154.48,154.48,0,0,1-23.987-10.509,140.2,140.2,0,0,1-20.9-13.918,124.35,124.35,0,0,1-17.243-16.869A109.358,109.358,0,0,1,98.1,273.387a98.157,98.157,0,0,1-8.228-21.4,93.518,93.518,0,0,1,2.9-55.331,104.569,104.569,0,0,1,16.211-28.743,125.111,125.111,0,0,1,25-23.79,147.2,147.2,0,0,1,32.127-17.5c-15.379,18.132-23.509,39.1-23.509,60.633,0,30.445,15.975,59.068,44.982,80.6s67.575,33.384,108.6,33.384a203.191,203.191,0,0,0,46.338-5.28,128.671,128.671,0,0,1-22.079,19.377,147.257,147.257,0,0,1-27.073,14.834,162.57,162.57,0,0,1-31.073,9.488A174.148,174.148,0,0,1,228.21,343Z" transform="translate(744 115.372)" fill="#fff"/>
    <path id="Union_3" data-name="Union 3" d="M169.1,202.257a70.607,70.607,0,0,1-25.16,4.528C112.495,206.785,87,187.037,87,162.677s25.494-44.107,56.943-44.107a71.317,71.317,0,0,1,21.96,3.4C169.656,102.646,187.613,88,209.2,88c24.309,0,44.016,18.574,44.016,41.488a39.271,39.271,0,0,1-2.4,13.556c28.448,5.22,49.189,21.419,49.189,40.6,0,23.4-30.869,42.361-68.948,42.361C203.846,226,180.32,216.318,169.1,202.257Z" transform="translate(767 314)" fill="rgba(141,141,141,0.56)"/>
    <path id="Union_2" data-name="Union 2" d="M164.513,211.524a56.142,56.142,0,0,1-20.006,3.64c-28.624,0-51.829-21.108-51.829-47.145s23.2-47.145,51.829-47.145a57.439,57.439,0,0,1,6.421.358C157.191,101.985,176.109,88,198.475,88c27.475,0,49.749,21.108,49.749,47.145a44.868,44.868,0,0,1-2.787,15.6c27.99,5.68,48.563,24.689,48.563,47.264C294,225.064,264.443,247,227.984,247,197.842,247,172.418,232.009,164.513,211.524Z" transform="translate(601.118 255.006) rotate(-3)" fill="rgba(141,141,141,0.57)"/>
  </g>
</svg>
