<svg xmlns="http://www.w3.org/2000/svg" xmlns:xlink="http://www.w3.org/1999/xlink" width="528.866" height="390" viewBox="0 0 528.866 390"><defs><style>.a{fill:#fe0;}.b{fill:#fff;}.c{filter:url(#a);}</style><filter id="a" x="61.866" y="0" width="467" height="390" filterUnits="userSpaceOnUse"><feOffset dx="20" dy="16" input="SourceAlpha"/><feGaussianBlur stdDeviation="24" result="b"/><feFlood flood-opacity="0.161"/><feComposite operator="in" in2="b"/><feComposite in="SourceGraphic"/></filter></defs><g transform="translate(-624.134 -95)"><g class="c" transform="matrix(1, 0, 0, 1, 624.13, 95)"><ellipse class="a" cx="161.5" cy="123" rx="161.5" ry="123" transform="translate(113.87 56)"/></g><path class="b" d="M178.74,203.085a86.607,86.607,0,0,1-28.113,4.561c-35.14,0-63.627-19.891-63.627-44.427s28.487-44.427,63.627-44.427a87.713,87.713,0,0,1,24.537,3.424C179.358,102.752,199.422,88,223.54,88c27.163,0,49.182,18.709,49.182,41.788a36.1,36.1,0,0,1-2.686,13.654C301.825,148.7,325,165.017,325,184.332,325,207.9,290.508,227,247.96,227,217.56,227,191.273,217.248,178.74,203.085Z" transform="translate(826 228)"/><path class="b" d="M175.847,212.7a77.877,77.877,0,0,1-25.558,4.229c-34.954,0-63.289-22.3-63.289-49.814S115.336,117.3,150.29,117.3a80.154,80.154,0,0,1,13.116,1.071C172.643,100.522,194.215,88,219.354,88,252.9,88,280.1,110.3,280.1,137.814a41.768,41.768,0,0,1-3.4,16.48c34.179,6,59.3,26.086,59.3,49.939C336,232.823,299.908,256,255.387,256,215.358,256,182.142,237.263,175.847,212.7Z" transform="translate(532.647 195.705) rotate(-3)"/></g></svg>