<svg xmlns="http://www.w3.org/2000/svg" width="79" height="73" viewBox="0 0 79 73">
  <g id="Group_4" data-name="Group 4" transform="translate(-1181 -879)">
    <path id="Union_12" data-name="Union 12" d="M21.43,38.927C9.3,37.866,0,31.675,0,24.2c0-8.224,11.254-14.89,25.136-14.89q1.275,0,2.517.074C31.507,3.814,39.385,0,48.477,0,61.368,0,71.818,7.667,71.818,17.124a12.99,12.99,0,0,1-1.081,5.165C75.853,25.337,79,29.488,79,34.062,79,43.417,65.837,51,49.6,51,36.3,51,25.058,45.91,21.43,38.927Z" transform="translate(1181 879)" fill="#fff"/>
    <circle id="Ellipse_47" data-name="Ellipse 47" cx="2.5" cy="2.5" r="2.5" transform="translate(1221 935)" fill="#fff"/>
    <circle id="Ellipse_48" data-name="Ellipse 48" cx="2.5" cy="2.5" r="2.5" transform="translate(1182 922)" fill="#fff"/>
    <circle id="Ellipse_49" data-name="Ellipse 49" cx="2.5" cy="2.5" r="2.5" transform="translate(1191 927)" fill="#fff"/>
    <circle id="Ellipse_50" data-name="Ellipse 50" cx="2.5" cy="2.5" r="2.5" transform="translate(1202 933)" fill="#fff"/>
    <circle id="Ellipse_51" data-name="Ellipse 51" cx="2.5" cy="2.5" r="2.5" transform="translate(1237 936)" fill="#fff"/>
    <circle id="Ellipse_52" data-name="Ellipse 52" cx="2.5" cy="2.5" r="2.5" transform="translate(1251 930)" fill="#fff"/>
    <circle id="Ellipse_53" data-name="Ellipse 53" cx="2.5" cy="2.5" r="2.5" transform="translate(1249 947)" fill="#fff"/>
    <circle id="Ellipse_54" data-name="Ellipse 54" cx="2.5" cy="2.5" r="2.5" transform="translate(1230 945)" fill="#fff"/>
    <circle id="Ellipse_55" data-name="Ellipse 55" cx="2.5" cy="2.5" r="2.5" transform="translate(1209 945)" fill="#fff"/>
    <circle id="Ellipse_56" data-name="Ellipse 56" cx="2.5" cy="2.5" r="2.5" transform="translate(1191 941)" fill="#fff"/>
    <circle id="Ellipse_57" data-name="Ellipse 57" cx="2.5" cy="2.5" r="2.5" transform="translate(1181 936)" fill="#fff"/>
  </g>
</svg>
