<svg xmlns="http://www.w3.org/2000/svg" width="79" height="70.542" viewBox="0 0 79 70.542">
  <g id="Group_3" data-name="Group 3" transform="translate(-925 -876)">
    <path id="Path_10" data-name="Path 10" d="M591.69,1043.038l19.386,10.6-18.392,11.267,18.392,10.6" transform="translate(351 -132.965)" fill="none" stroke="#fff700" stroke-width="2"/>
    <path id="Path_11" data-name="Path 11" d="M591.69,1043.038l19.386,10.6-18.392,11.267,18.392,10.6" transform="translate(381 -129.839)" fill="none" stroke="#fff700" stroke-width="2"/>
    <path id="Union_11" data-name="Union 11" d="M21.43,38.927C9.3,37.866,0,31.675,0,24.2c0-8.224,11.254-14.89,25.136-14.89q1.275,0,2.517.074C31.507,3.814,39.385,0,48.477,0,61.368,0,71.818,7.667,71.818,17.124a12.99,12.99,0,0,1-1.081,5.165C75.853,25.337,79,29.488,79,34.062,79,43.417,65.837,51,49.6,51,36.3,51,25.058,45.91,21.43,38.927Z" transform="translate(925 876)" fill="#686868" opacity="0.83"/>
  </g>
</svg>
