<svg xmlns="http://www.w3.org/2000/svg" width="79" height="77.065" viewBox="0 0 79 77.065">
  <g id="Group_2" data-name="Group 2" transform="translate(-673 -866)">
    <path id="Union_10" data-name="Union 10" d="M21.43,38.927C9.3,37.866,0,31.675,0,24.2c0-8.224,11.254-14.89,25.136-14.89q1.275,0,2.517.074C31.507,3.814,39.385,0,48.477,0,61.368,0,71.818,7.667,71.818,17.124a12.99,12.99,0,0,1-1.081,5.165C75.853,25.337,79,29.488,79,34.062,79,43.417,65.837,51,49.6,51,36.3,51,25.058,45.91,21.43,38.927Z" transform="translate(673 866)" fill="#fff"/>
    <line id="Line_1" data-name="Line 1" y2="12" transform="translate(688.5 914.098)" fill="none" stroke="#003fd4" stroke-width="3"/>
    <line id="Line_2" data-name="Line 2" y2="13" transform="translate(708.486 923.023)" fill="none" stroke="#003fd4" stroke-width="3"/>
    <line id="Line_3" data-name="Line 3" y2="16" transform="translate(735.24 927.065)" fill="none" stroke="#003fd4" stroke-width="3"/>
    <line id="Line_4" data-name="Line 4" y2="8" transform="translate(722.5 930.043)" fill="none" stroke="#003fd4" stroke-width="3"/>
  </g>
</svg>
