<svg xmlns="http://www.w3.org/2000/svg" width="108.37" height="57" viewBox="0 0 108.37 57"><defs><style>.a{fill:#fff;}.b{fill:none;stroke:#0069f2;}</style></defs><g transform="translate(-153.353 -889)"><path class="a" d="M19.8,43.507C8.6,42.32,0,35.4,0,27.044,0,17.852,10.4,10.4,23.227,10.4q1.178,0,2.326.082C29.114,4.263,36.394,0,44.8,0,56.707,0,66.364,8.569,66.364,19.139a17.156,17.156,0,0,1-1,5.773C70.092,28.318,73,32.957,73,38.07,73,48.525,60.837,57,45.832,57,33.541,57,23.155,51.311,19.8,43.507Z" transform="translate(171 889)"/><path class="b" d="M-143.428,1099.1s24.754-7.59,43.32-5.06,17.109,3.373,25.482,5.06,39.315-5.06,39.315-5.06" transform="translate(296.928 -178.052)"/><path class="b" d="M-143.428,1099.1s24.754-7.59,43.32-5.06,17.109,3.373,25.482,5.06,39.315-5.06,39.315-5.06" transform="translate(296.928 -166.987)"/><path class="b" d="M-143.428,1099.1s24.754-7.59,43.32-5.06,17.109,3.373,25.482,5.06,39.315-5.06,39.315-5.06" transform="translate(296.928 -173.023)"/></g></svg>